<?xml version="1.0" encoding="UTF-8"?>
<!DOCTYPE svg PUBLIC "-//W3C//DTD SVG 1.1//EN" "http://www.w3.org/Graphics/SVG/1.1/DTD/svg11.dtd">
<!-- Creator: CorelDRAW -->
<svg xmlns="http://www.w3.org/2000/svg" xml:space="preserve" width="100mm" height="100mm" version="1.1" style="shape-rendering:geometricPrecision; text-rendering:geometricPrecision; image-rendering:optimizeQuality; fill-rule:evenodd; clip-rule:evenodd"
viewBox="0 0 10000 10000"
 xmlns:xlink="http://www.w3.org/1999/xlink"
 xmlns:xodm="http://www.corel.com/coreldraw/odm/2003">
 <defs>
  <style type="text/css">
   <![CDATA[
    .fil0 {fill:url(#id0)}
   ]]>
  </style>
  <radialGradient id="id0" gradientUnits="userSpaceOnUse" gradientTransform="matrix(1 -0 -0 0.997011 0 15)" cx="4996.18" cy="5005.68" r="2912.55" fx="4996.18" fy="5005.68">
   <stop offset="0" style="stop-opacity:1; stop-color:#FFF212"/>
   <stop offset="0.329412" style="stop-opacity:1; stop-color:#F38D4F"/>
   <stop offset="0.4" style="stop-opacity:1; stop-color:#E8288C"/>
   <stop offset="0.678431" style="stop-opacity:1; stop-color:#00AFEF"/>
   <stop offset="0.8" style="stop-opacity:1; stop-color:#1CC292"/>
   <stop offset="1" style="stop-opacity:1; stop-color:#37D535"/>
  </radialGradient>
 </defs>
 <g id="Camada_x0020_1">
  <metadata id="CorelCorpID_0Corel-Layer"/>
  <path class="fil0" d="M4629.01 2044.87c374.87,-63.43 549.78,-115.25 995.01,34.13 178.57,59.9 624.14,253.36 757.03,377.43 -44.04,23.7 -205.62,55.38 -402.51,161.09 -386.27,207.38 -748.66,508.61 -1083.5,659.25 423.86,-12.58 1072.74,-672.36 1521.03,-721.11 197.8,-21.53 479.1,49.53 630.98,124.05 548.24,268.95 800.13,693.81 1149.02,1114.44 79.65,96.04 165.52,205.21 262.95,292.28 39.88,35.64 76.35,60.36 102.96,86.33 -45.71,-64.03 -88.85,-110.94 -144.47,-186.67 -356.66,-485.55 -665.44,-949.26 -1174.59,-1296.51 101.71,37.27 245.07,124.02 324.4,181.3 141.17,101.97 757.42,-19.66 1352.43,1481.04 22.76,57.38 44.86,142.47 67.61,188.57 48.3,97.89 179.35,71.29 185.96,359.21 -370.15,20.54 -825.64,-12.27 -1206.1,-16.48 -391.74,-4.34 -787.81,-8.74 -1181.72,-12.02 -199.45,-1.67 -398.64,-0.98 -598.06,-0.12 -311.6,1.33 -250.05,43.31 -434.02,170 -414.39,285.33 -752.28,50.69 -953.04,16.38 2.14,3.53 5.97,4.29 7.34,10.01 8.1,33.97 375.68,333.55 904.73,61.2 442.53,-227.82 -65.07,-188.3 1030.33,-182.03 808.7,4.65 1618.27,9.69 2426.84,11.26 57.99,182 19.29,232.79 -88.28,349.66 -74.03,80.43 -209.92,153.89 -286.88,239.96 -166.06,185.71 -361.78,336.08 -562.59,476.68 -189.34,132.58 -425.41,278.07 -649.72,390.38 -131.19,65.68 -227.19,114.99 -351.73,175.16 -113.54,54.85 -264.73,108.85 -360.58,160.95 -312.95,111.44 -584.5,232.28 -945.18,355.27 -162.48,55.4 -309.96,102.86 -486.35,155.06 -282.06,83.47 -271.58,65.78 -576.09,43.83 -165.62,-79.63 -260.71,-14.18 -654.05,-275.73 -39.34,16.31 -167.43,115.47 -219.99,148.43 -596.38,373.94 -259.4,130.19 -791,324.21 -2.83,-2.51 -6.98,-10.26 -8.19,-7.77l-45.26 -57.4c-104.64,-169.06 -229.05,-328.11 -342.57,-483.68l-389.56 -552.17c25.71,-20.35 20.45,-15.99 56.76,-30.61 30.49,-12.26 47.23,-15.96 75.67,-23.56l768.69 -228.91c235.05,-74.09 70.2,-59.91 195.31,-101.26 31.65,-10.47 43,-13.17 76.22,-26.71 -55.99,-37.35 -203,-22.24 -309.36,-38.85 -95.37,-14.92 -195.96,-30.63 -291.57,-48.05 -183.59,-33.47 -377.08,-85.52 -542.57,-139.61 -184.97,-60.46 -327.08,-116.38 -502.16,-184.9 -123.51,-48.33 -360.45,-195.74 -472.66,-221.11 24.88,51.94 259.88,317.25 334.62,403.91l776.39 946.22c71.22,89.83 134.68,185.27 213.46,285.27 79.76,101.25 237.6,320.81 302.08,437.96 27.6,50.15 52.56,123.03 90.45,164.2 131.27,-65.05 291.26,-119.51 465.63,-147.35 148.05,-23.64 441.69,-6.69 447.9,163.7 -50.89,106.42 -193.19,103.53 -305.94,152.05 -117.64,50.64 -191.74,101.75 -289.39,161.22 -7.2,137.57 495.61,907.52 510.73,1323.96 6.92,190.8 -100.47,324.67 -302.07,101.46 -36.88,74.03 22.47,160.73 -205.51,154.09 -59.02,-50.78 -71.97,-6.16 -192.59,-171.38 -240.28,-329.1 41.17,-106.61 -426.02,-640.7 -190.85,-218.2 -464.48,-564.1 -635.39,-803.02 -50,-69.9 -108.38,-138.87 -156.24,-199.98l-457.61 -625.25c-235.74,-309.64 -1058.08,-1468.09 -1085.05,-1775.12 -35.79,-407.32 349.21,-713.33 752.12,-687.33 210.38,13.59 378.07,100.54 557.41,160.63 304.79,102.12 965.17,244 1123.63,313.39 82.13,35.96 157.37,71.61 235.78,120.69 52.45,32.81 175.06,133.48 214.38,146.67 -1.11,-154.24 -261.56,-226.52 -387.71,-305.86 551.84,-106.39 1068.15,-87.25 901.57,665.03 -16.68,75.33 -40.48,148.97 -67.17,216.01 -13.88,34.83 -25.68,71.27 -39.57,103.48 -16.15,37.39 -31.71,64.23 -44.29,109.76 54.49,-4.44 46.94,-4.24 71.55,-53.15 173.31,-344.54 344.85,-862.89 -106.53,-1069.2 -134.38,-61.42 -326.46,-73.31 -494.47,-65.03 -227.99,11.23 -255.13,51.95 -493.83,1.11 -155.69,-33.15 -302.44,-69.12 -445.45,-110.93 -144.93,-42.39 -267.93,-83.91 -419.44,-135.64 -144.89,-49.46 -266.6,-107.82 -422,-149.33 -347.03,-92.67 -687.17,7.75 -849.52,204.14 -81.4,98.47 -153.15,212.08 -162.63,394.28 -9.81,188.47 51.95,309.61 123.86,448.19 115.93,223.38 276.66,497.43 415.43,696.25 62.26,89.19 46.01,92.2 -7.94,167.87 -164.3,230.44 -106.42,166.24 -363.66,207.53l-194.16 15.74c-67.06,14.75 -23.14,-14.66 -45.04,31.29 97.66,63.01 315.69,-4.97 429.48,-15.8 93.21,-8.86 90.65,-39.05 137.66,-102.57 41.74,-56.43 66.11,-80.76 99.97,-140.85 50.4,21.31 59.62,55.72 112.98,136.41 32.95,49.81 83.13,110.76 94.1,165.52l-329.01 200.93c-62.18,30.14 -101.32,64.94 -166.3,89.27 -115.58,43.31 -179.44,7.17 -206.98,65.79l45.32 16.1c220.59,25.71 563.86,-295.38 725.13,-332.98 37.27,25.63 407.14,547.24 467.45,633.86 34.62,49.73 77.14,105.58 117.2,152.6 54.12,63.54 81.42,113.14 118.87,165.41 56.8,79.3 219.97,242.45 227.57,337.37 -133.65,30.93 -282.16,88.78 -429,129.64 -68.82,19.13 -148.86,38.26 -220.1,48.97 -99.71,15.02 -197.26,-4.29 -275.23,9.08 38.47,89.93 76.41,46.57 107.15,83.55 17.71,40.79 -4.76,26.02 20.47,71.26 17.84,31.97 44.16,45.26 71.75,56.83 11.26,-31.85 39.82,-146.42 50.1,-162.65 21,-12.54 725.13,-171.31 754.76,-171.29 37.79,40.95 50.76,40.6 62.68,104.53 -114.21,16.86 -704.04,146.7 -815.17,227.76 -47.08,34.35 -15.79,-3.78 -28.85,39.66 70.74,89.73 228.24,-2.57 441.23,-70.47 81.15,-25.86 436.26,-121.05 482.51,-121.37l538.03 747.18 -443.24 138.33c147.58,86.58 735.05,305.23 906.46,321.86 83.3,63.19 792.57,145.81 978.01,151.7 103.8,3.3 955.41,10.34 1068.93,-84.96 86.5,30.07 565.73,-116.45 674.51,-152.41 513.39,-169.61 1259.93,-536.47 1630.77,-914.25 -358.73,-63.59 -1450.53,21.81 -1888.98,76.03 -193.31,23.92 -424.44,-4.89 -642.66,19.55 -216.55,32.96 -429.31,74.4 -655.01,105.5 -176.66,24.35 -491.5,93.77 -654.11,93.29l-112.87 -200.98c-76.76,-129.03 -300.74,-530.5 -326.62,-635.86 77.19,-67 466.5,-186.38 592.79,-194.77 49.34,46.77 50.28,133.52 180.22,170.85 234.01,67.26 601.82,-120.9 771.94,-231.85 124.42,-57.94 110.42,-62.51 284.36,-76.32 110.32,-8.76 211.72,-18.94 329.8,-24.17 229.72,-10.19 453.57,-21.09 682.87,-26 472.71,-10.13 952.44,-3.73 1424.5,-20.67 106.35,-8.63 412.71,-20.89 493.05,9.65 95.87,125.6 45.65,309.59 23.67,446.73 101.91,-64.23 533.01,-683.04 604.19,-831.39 -13.66,67.35 -119.71,244.15 -160.01,315.04 -42.01,73.88 -170.65,255.9 -183.01,310.83 -42.77,25.23 -48.47,44.67 -66.57,88.87 -31.18,16.33 -35.87,34.37 -68.08,79.92 -602.76,852.34 -1735.63,1588.07 -2747.11,1813.19 -75.75,16.87 -199.41,29.92 -259.82,63.9 567.22,3.9 1463.6,-329.05 1958.57,-617.7 269.12,-156.95 521.55,-334.46 752.55,-530.09 120.62,-102.16 578.54,-535.36 627.51,-661.26l53.62 -53.95c92.1,-113.69 247.43,-326.78 297.18,-443.68 53.93,-34.65 272.57,-484.8 318.63,-591.71 327.29,-759.85 460.3,-1528.37 394.79,-2384.53 -68.31,-892.67 -425.8,-1830.12 -963.34,-2528.02 -61.05,-79.25 -73.98,-107.12 -109.54,-125.9 -16.55,-39.29 -18.78,-41.24 -46.8,-73.55 -29.89,-34.44 -38.92,-43.37 -70.74,-64.29 -5.41,-28.96 0.49,-13.81 -22.25,-41.81l-121.09 -135.74c-387.98,-399.38 -862.49,-762.97 -1370.26,-1007.73 -619.83,-298.76 -1379.47,-533.37 -2200.57,-505.12 121.23,50.01 758.5,59.32 1540.91,438.13 889.88,430.87 1589.28,1033.31 2109.81,1877.62 132.93,215.62 232.17,425.06 337.5,659.47 69.63,154.93 224.61,581.87 238.67,747.87 -51.3,-237.59 -275.84,-718.72 -391.73,-921.59 -485.3,-849.6 -1081.76,-1467.85 -2008.73,-1964.66 -1019.51,-546.4 -2153.27,-684.01 -3316.08,-451.43 -273.61,54.73 -513.36,141.15 -762.01,234.31 -91.97,34.46 -155.02,67.42 -231.81,98.25 105.01,-11.06 310.63,-83.84 434.36,-112.63 482.31,-112.23 1034.19,-146.96 1526.72,-98.89 331.4,32.32 636.08,94.6 933.24,179.47 238.6,68.14 621.55,209.42 798.69,320.87 -94.51,-23.55 -390.82,-146.37 -570.45,-194.89 -782.62,-211.35 -1257.68,-217.66 -2067.49,-135.07 -440.68,64.01 -831.96,192.91 -1195.18,337.29 -213.04,84.68 -844.91,414.3 -959.95,570.61l-42.95 58.11c-61.87,28.94 -341.48,416.19 -384.9,477.68 -66.5,94.17 -301.23,459.05 -325.11,549.99 165.29,8.98 270.03,5.35 436.26,31.11 135.77,21.06 285.39,67.22 422.59,78.91 -49.71,-426.59 658.36,-23.42 864.44,26.98 -3.28,-225.62 87.8,-238.48 272.97,-169.48 124.36,46.34 240.62,99.65 357.27,157.3 386.78,191.16 417.63,274.12 762.33,261.49 134.46,-4.93 323.89,-58.56 378.66,-132.44 36.06,-48.64 5.03,-146.02 4.8,-222.05 -0.29,-83.3 7.03,-152.69 24.65,-232.65 28.48,-129.08 58.19,-288.88 148.84,-362.9 146.14,-119.32 264.22,-143.68 318.98,-186.18zm3412.47 2373.03c41.69,-57.28 88.37,-131.82 167.87,-135.17 120.44,138.9 18.57,222.22 -33.53,327.63l566.25 -6.13c-57.37,-33.72 -365.14,-51.38 -434.09,-56.19 11.89,-110.45 64.71,-296.56 -61.95,-334.99 -150.99,-45.83 -217.05,75.67 -204.55,204.85zm-1418.82 -1101.14c-187.27,67.73 0.56,383.37 193.31,281 56.22,-29.87 122.69,-144.38 61.37,-222.17 -40.09,-50.85 -165.71,-91 -254.68,-58.83zm-6489.28 1190.14c3.21,1.4 8.56,-0.86 10.12,2.82 1.53,3.65 7.98,2.19 10.11,2.33l72.34 -11.68c39.49,-12.22 60.36,-14.9 105.8,-25.26 146.35,-33.35 520.64,-150.87 626.14,-153.03 -149.24,151.4 -534.43,456.43 -742.69,562.4 -54.91,27.94 -98.92,21.4 -117.37,78.07 94.45,65.43 536.06,-292.9 650.47,-383.75 68.72,-54.54 282.51,-266.86 313.17,-343.48 -193.96,27.46 -608.68,161.62 -831.08,208.65 -76.86,16.24 -87.1,-2.61 -97.01,62.93zm4744.03 1752.2l-341.22 -8.86c-79.65,-4.07 -209.47,-38.28 -272.54,-6.14 6.94,27.51 -41.46,46.06 128.86,52.84 663.51,26.4 1195.84,32.27 1850.92,-197.6 90.31,-31.68 183.86,-66.6 271.93,-111.74 54.04,-27.7 213.51,-128.66 233.86,-134.12 -108.58,31.31 -260.18,108.76 -397.21,157.11 -444.99,157 -992.56,250.96 -1474.6,248.51zm213.59 409.64c-150.34,-0.66 -269.46,-9.12 -411.94,-26.41 -147.01,-17.86 -328.36,-83.01 -353.29,-28 41.61,83.13 710.5,110.11 850.83,107.76 546.31,-9.15 1043.55,-174.93 1495.76,-433.53 100.17,-57.26 197.71,-125.26 290.79,-194.06 65.52,-48.44 233.28,-166.65 269.52,-239.56 -42.21,17.9 -482.41,341.71 -935,541.56 -352.93,155.86 -760.1,272.79 -1206.67,272.24zm71.21 295.8c-334.26,-0.74 -474.24,-60.18 -750.88,-135.37 -13.81,71.88 -3.57,65.84 200.91,119.76 80.98,21.36 192.85,42.45 270.62,53.7 179.03,25.85 457.07,21.09 633.54,-2.81 802.31,-108.7 1640.89,-564.33 2249.26,-1056.84 48.62,-39.35 328.52,-254.02 354.42,-306.67 -135.57,40.85 -470.15,330.15 -620.62,438.06 -637.44,457.1 -1475.2,892.05 -2337.25,890.17zm2188.21 -3606.91c-87.68,369.18 -219.56,901.72 -776.29,763.98 -775.12,-191.76 -377.13,-896.35 -361.21,-1031.32 -308.16,447.41 -296.47,956.82 274.54,1115.23 267.31,74.17 536.79,68.57 687.91,-120.82 127.84,-160.21 208.18,-451.18 175.05,-727.07zm-7120.59 584.13c106.26,-14.68 449.13,-104.58 677.91,-140.97 120.42,-19.16 236.33,-31.06 364.83,-40.7 317.08,-23.83 427.62,53.2 398.7,-175.06 -390,-3.38 -839.28,34.31 -1216.24,115.69 -178.26,38.5 -220.86,23.92 -225.2,241.04zm5546.02 2003.31c-65.74,-17.54 -175.18,-12.98 -366.21,-63.4 -126.93,-33.51 -207.83,-62 -314.84,-110.47 -534.55,-242.16 -612.08,-479.23 -713.22,-996.77 -24.56,-125.67 -88.13,-679.31 -127.37,-740.91 -27.44,507.1 10.95,1111.59 249.01,1474.6 110.8,168.95 282.67,289.4 502.63,365.42 158.24,54.69 583.56,122.14 725.96,91.17 39.59,-8.61 30.79,-7.75 44.04,-19.64zm-2550.2 -1992.11c-274.64,0 -495.26,-2.59 -714.64,95.75 -120.82,54.15 -429.74,216.58 -493.19,282.88l573.68 -88.79c412.57,-64.34 1074.78,44.13 1266.91,-71.47 99.75,-60.01 286.4,-226.59 289.09,-384.99 -436.11,307.57 -279.73,166.62 -921.85,166.62zm3238.47 -1168.14c-243.41,71.75 -415.86,138.31 -541.13,318.61 -134.59,193.76 -171.15,426.39 -108.98,711.07 58.68,268.67 144.94,392.73 365.65,501.24 181.01,88.99 505.94,150.71 730.93,101.89 625.79,-135.81 1006.89,-1123.22 277.16,-1524.72 -169.57,-93.3 -497.78,-174.65 -723.63,-108.09zm68.43 52.79c-442.67,69.46 -752.44,385.88 -657.12,911.62 47.06,259.5 97.21,377.36 308.65,490.53 380.64,203.72 850.71,192.4 1154.68,-190.4 114.47,-144.15 202.02,-369.66 162.13,-614.1 -78.54,-481.3 -618.02,-652.62 -968.34,-597.65zm-2812.9 4542.4l56.04 24.3c125.68,23.87 276.64,-28.92 389.76,141.68 47.96,-85.76 23.9,-116.35 149.29,-255.62 29.82,-33.13 47.51,-35.86 58.76,-77.99 -43.44,-33.03 -148.5,-106.62 -179.58,-124.28 -96.55,76.79 -365.76,246.28 -474.27,291.91zm-1604.67 -1351.98l429.89 -151.96c-2.27,-2.59 -6.48,-10.53 -7.94,-7.83l-214.82 -89.28c-74.03,-26.58 -163.08,-64.05 -234.76,-90.67l-461.38 -198.69c22.76,45.09 189.14,193.02 250.75,266.5 77.58,92.53 162.12,197.98 238.26,271.93zm46.21 59.44l194.62 256.24 967.86 -289.64c-103.94,-29.11 -210.37,-43.11 -312.44,-64.89 -350.32,-74.72 -256.84,-137.08 -579.82,-12.74 -68.92,26.52 -218.84,64.09 -270.22,111.03z"/>
 </g>
</svg>
