<?xml version="1.0" encoding="UTF-8" standalone="no"?>
<!-- Created with Inkscape (http://www.inkscape.org/) -->

<svg
   version="1.1"
   id="svg1"
   width="512"
   height="510.96533"
   viewBox="0 0 512 510.96532"
   sodipodi:docname="Classind A18.svg"
   inkscape:version="1.4 (e7c3feb100, 2024-10-09)"
   xmlns:inkscape="http://www.inkscape.org/namespaces/inkscape"
   xmlns:sodipodi="http://sodipodi.sourceforge.net/DTD/sodipodi-0.dtd"
   xmlns="http://www.w3.org/2000/svg"
   xmlns:svg="http://www.w3.org/2000/svg">
  <defs
     id="defs1">
    <color-profile
       inkscape:label="sRGB IEC61966-2.1"
       name="sRGB IEC61966-2.1"
       id="color-profile1" />
  </defs>
  <sodipodi:namedview
     id="namedview1"
     pagecolor="#ffffff"
     bordercolor="#000000"
     borderopacity="0.25"
     inkscape:showpageshadow="2"
     inkscape:pageopacity="0.0"
     inkscape:pagecheckerboard="0"
     inkscape:deskcolor="#d1d1d1"
     inkscape:zoom="0.91787044"
     inkscape:cx="255.48268"
     inkscape:cy="255.48268"
     inkscape:window-width="1280"
     inkscape:window-height="729"
     inkscape:window-x="0"
     inkscape:window-y="0"
     inkscape:window-maximized="1"
     inkscape:current-layer="svg1">
    <inkscape:page
       x="0"
       y="1.3272121e-13"
       width="512"
       height="510.96533"
       id="page2"
       margin="0"
       bleed="0" />
  </sodipodi:namedview>
  <path
     style="fill:#040506;fill-opacity:1;fill-rule:nonzero;stroke:none;stroke-width:12.0272"
     d="m 511.9991,38.439352 -0.24085,-1.731921 c 0.0271,-2.742208 -0.37254,-5.472419 -1.21478,-8.094295 C 507.5367,20.194017 502.0162,12.893519 494.73969,7.6977567 488.58181,3.235625 481.85853,0.34909029 474.11306,0.24084524 h -1.41927 -1.03429 L 470.07191,0 H 42.419703 L 40.808114,0.24084524 H 39.78574 38.35456 C 34.674228,0.69818059 30.945727,0.81815219 27.469888,2.441828 12.592237,9.3935959 2.4772782,20.037693 0.48078844,36.996084 v 1.828169 C 0.55295181,40.014949 0.38426994,41.205644 0,42.336173 V 469.11033 l 0.24084524,1.61168 0.0360817,1.03428 0.20476355,2.82646 C 1.3476509,491.18033 19.304332,510.25545 37.020439,510.72451 h 2.886535 l 2.020574,0.24085 H 470.55387 l 1.99649,-0.25257 h 2.12882 c 3.29552,-0.30038 6.59095,-0.38518 9.77814,-1.5876 7.15626,-2.73021 13.49455,-7.2765 18.36557,-13.1939 5.13569,-6.0978 8.91218,-12.92924 8.93626,-21.24002 v -1.39519 L 512,472.03322 Z"
     id="path24" />
  <path
     id="path22"
     style="fill:#ffffff;fill-opacity:1;fill-rule:nonzero;stroke:none;stroke-width:12.0272"
     d="M 83.331912,131.92194 49.205765,385.30413 h 69.503065 l 3.99929,-45.54248 h 24.06622 c 1.31094,17.77618 2.03645,27.75421 3.34739,45.54248 h 68.71026 L 180.42475,131.92194 Z m 51.338828,56.65952 c 3.40376,42.14341 6.79715,77.5749 10.20083,106.27184 h -22.95625 c 1.70784,-22.43081 5.94807,-57.86221 12.75542,-106.27184 z" />
  <path
     style="fill:#ffffff;fill-opacity:1;fill-rule:nonzero;stroke:none;stroke-width:12.0272"
     d="m 298.15495,382.74278 c 0,1.62367 -0.42125,1.9605 -1.98449,1.94841 -14.90173,-0.0631 -29.79147,-0.0631 -44.69321,0.009 -1.90024,0.009 -2.41747,-0.43298 -2.41747,-2.39348 0.0722,-61.20653 0.0812,-122.42515 0.0631,-183.63169 v -2.80237 c -4.23355,4.37797 -8.94826,8.25071 -14.05986,11.55823 -5.06343,3.23526 -10.48768,5.86922 -16.17659,7.82972 v -2.42956 c 0,-13.54263 0.0451,-27.08526 -0.0361,-40.63997 l 0.45733,-2.15291 1.61159,-1.49134 c 13.9877,-8.29879 25.55792,-19.01505 32.4976,-34.01303 1.35911,-2.94661 2.88654,-3.82466 6.06173,-3.7645 12.1956,0.22822 24.40321,0.1326 36.59882,0.0451 1.69584,-0.009 2.08074,0.45733 2.08074,2.10482 -0.0451,83.27653 -0.0451,166.54097 0,249.8175"
     id="path21" />
  <path
     id="path94"
     style="fill:#ffffff;fill-opacity:1;fill-rule:nonzero;stroke:none;stroke-width:12.0272"
     d="m 403.02826,126.70706 c -8.24313,-0.11456 -16.49997,0.69367 -24.61231,2.41359 -20.04942,4.08932 -32.38953,16.23478 -36.57501,36.41643 -3.09103,14.91383 -3.07786,29.9985 -1.55034,44.99639 1.5876,15.49113 9.7785,27.10799 23.53762,34.63706 3.01886,1.52743 6.16708,2.80075 9.39044,3.82313 l -2.02608,0.66931 c -13.25406,4.29372 -22.90718,12.59756 -28.25935,25.59906 -2.89854,7.26441 -4.38122,15.00321 -4.36923,22.83294 -0.10824,9.63381 -0.0974,19.25968 0.0361,28.89349 0.009,8.02213 1.12881,16.02198 3.32979,23.73146 3.56,12.09936 10.25036,21.65677 21.91674,27.23744 7.52908,3.48792 15.62175,5.60411 23.87245,6.28966 13.92753,1.3951 27.72986,1.0673 41.29657,-2.62512 14.67325,-4.00507 25.40647,-12.56761 30.8668,-27.09644 3.16319,-8.80402 4.76892,-18.08613 4.75683,-27.43128 0.1326,-8.77985 0.005,-17.58784 0.0541,-26.39177 0.0722,-4.94319 -0.34818,-9.89288 -1.28613,-14.7639 -2.34531,-11.89496 -7.75485,-21.99098 -17.65323,-29.35164 -4.75079,-3.41567 -10.03369,-5.95844 -15.66243,-7.55812 l 1.4623,-0.58182 c 19.07512,-5.76107 29.93273,-22.0874 31.44817,-40.11625 0.67382,-7.8778 0.38968,-15.78312 0.28143,-23.66092 -0.0812,-6.84353 -0.89302,-13.65052 -2.396,-20.31363 -4.17348,-18.22125 -14.926,-30.08031 -33.31566,-34.56652 -8.0703,-1.94841 -16.29873,-2.96889 -24.54186,-3.08309 z m -2.55458,30.4791 c 1.52788,-0.0956 3.17789,0.13621 4.89782,0.70449 3.68033,1.22678 5.51562,4.09338 6.46584,7.5933 1.71983,6.3143 1.73345,12.82668 1.93794,19.30939 0.10825,3.19927 0.0361,6.39611 0.0361,9.61946 0.009,8.22663 0.11637,16.46904 -1.10996,24.64758 -0.20476,1.37111 -0.47898,2.74032 -0.82807,4.08734 -1.84017,6.8916 -7.30375,9.8503 -14.14727,7.76956 -3.81257,-1.16662 -5.8087,-3.90828 -6.78291,-7.54053 -1.14261,-4.60637 -1.69214,-9.33803 -1.65606,-14.07673 -0.10824,-9.76614 -0.10824,-19.55032 0,-29.31637 0,-4.67862 0.54935,-9.33118 1.65606,-13.86538 1.40719,-5.46638 4.94788,-8.64652 9.53134,-8.93238 z m 1.18041,111.62771 c 0.36533,-1.8e-4 0.74509,-0.002 1.12755,0.018 5.54459,0.30038 8.86158,2.83241 10.37701,8.01618 1.73192,5.89331 1.86416,11.96153 2.00848,18.02325 0.14433,5.29192 0.0361,10.60459 0.0361,18.18174 -0.10824,5.61675 0.27423,13.50483 -0.38787,21.37064 -0.22822,3.54809 -0.78929,7.06056 -1.69133,10.5004 -1.82808,6.41045 -5.72147,9.2536 -12.42067,9.07319 -5.80915,-0.16868 -9.63372,-3.54141 -11.02891,-9.79554 -1.15461,-5.60475 -1.69945,-11.3117 -1.6032,-17.0366 -0.0271,-12.97741 -0.4411,-25.95284 0.3527,-38.91825 0.0812,-4.25764 0.86506,-8.46846 2.30797,-12.47353 1.91683,-4.73572 5.44463,-6.95645 10.92318,-6.95907 z" />
</svg>
